<svg xmlns="http://www.w3.org/2000/svg" viewBox="0 0 800 800" role="img" aria-labelledby="title desc">
  <title id="title">Dr. Priya Sharma portrait illustration</title>
  <desc id="desc">A professional medical portrait style illustration with soft green and blue tones.</desc>
  <defs>
    <linearGradient id="bg" x1="0" y1="0" x2="1" y2="1">
      <stop offset="0%" stop-color="#0f766e"/>
      <stop offset="100%" stop-color="#111827"/>
    </linearGradient>
    <linearGradient id="coat" x1="0" y1="0" x2="0" y2="1">
      <stop offset="0%" stop-color="#ffffff"/>
      <stop offset="100%" stop-color="#dbeafe"/>
    </linearGradient>
  </defs>
  <rect width="800" height="800" fill="url(#bg)"/>
  <circle cx="400" cy="250" r="145" fill="#f1c7a8"/>
  <path d="M268 250c0-84 60-146 132-146s132 62 132 146c0 28-7 53-21 75-11-24-34-40-61-40H350c-27 0-50 16-61 40-14-22-21-47-21-75Z" fill="#2c5282"/>
  <rect x="220" y="470" width="360" height="260" rx="70" fill="url(#coat)"/>
  <path d="M270 500c40 25 85 38 130 38s90-13 130-38l40 230H230l40-230Z" fill="#cbd5e1"/>
  <circle cx="350" cy="252" r="10" fill="#102a43"/>
  <circle cx="450" cy="252" r="10" fill="#102a43"/>
  <path d="M370 296c16 12 44 12 60 0" stroke="#102a43" stroke-width="8" stroke-linecap="round" fill="none"/>
  <path d="M244 560h312" stroke="#38bdf8" stroke-width="10" stroke-linecap="round" opacity="0.35"/>
  <path d="M288 590h224" stroke="#8b5cf6" stroke-width="10" stroke-linecap="round" opacity="0.2"/>
</svg>